<svg width="286" height="72" viewBox="0 0 286 72" fill="none" xmlns="http://www.w3.org/2000/svg">
<path d="M21.344 33.648V71H6.256V5.68H18.216L48.484 44.136V5.68H63.572V71H51.244L21.344 33.648ZM121.973 57.752V71H76.0646V5.68H121.145V18.928H91.1526V31.624H116.913V43.86H91.1526V57.752H121.973ZM152.667 5.772H166.559L173.367 26.656L180.175 5.772H194.159L183.027 36.132L189.651 53.52L206.027 5.68H222.495L197.011 71H183.947L173.367 45.424L162.879 71H149.723L124.331 5.68H140.707L157.175 53.52L163.615 36.132L152.667 5.772ZM265.386 24.816C265.202 24.5707 264.558 24.1107 263.454 23.436C262.35 22.7613 260.97 22.056 259.314 21.32C257.658 20.5227 255.848 19.8787 253.886 19.388C251.923 18.836 249.96 18.56 247.998 18.56C242.6 18.56 239.902 20.3693 239.902 23.988C239.902 26.196 241.067 27.76 243.398 28.68C245.79 29.6 249.194 30.704 253.61 31.992C257.78 33.1573 261.368 34.5067 264.374 36.04C267.44 37.512 269.802 39.5053 271.458 42.02C273.114 44.4733 273.942 47.724 273.942 51.772C273.942 55.452 273.267 58.58 271.917 61.156C270.568 63.6707 268.728 65.7253 266.397 67.32C264.067 68.8533 261.43 69.988 258.486 70.724C255.603 71.3987 252.598 71.736 249.47 71.736C244.624 71.736 239.718 71.0307 234.75 69.62C229.782 68.148 225.396 66.1547 221.594 63.64L228.218 50.484C228.463 50.7907 229.26 51.3733 230.61 52.232C231.959 53.0293 233.646 53.888 235.67 54.808C237.694 55.728 239.902 56.5253 242.294 57.2C244.747 57.8133 247.231 58.12 249.746 58.12C255.082 58.12 257.75 56.4947 257.75 53.244C257.75 51.588 257.044 50.3 255.634 49.38C254.284 48.3987 252.414 47.5707 250.022 46.896C247.63 46.16 244.931 45.332 241.926 44.412C235.915 42.572 231.468 40.3333 228.586 37.696C225.764 35.0587 224.354 31.2867 224.354 26.38C224.354 21.78 225.427 17.916 227.574 14.788C229.782 11.5987 232.726 9.20666 236.406 7.612C240.086 5.956 244.103 5.128 248.458 5.128C253.058 5.128 257.412 5.92533 261.522 7.51999C265.631 9.05333 269.127 10.648 272.01 12.304L265.386 24.816Z" fill="#8FA7B3"/>
<path d="M78.584 68.04C77.5867 68.04 76.68 67.7227 75.864 67.088C75.048 66.4987 74.64 65.5013 74.64 64.096C74.64 62.736 75.0707 61.4667 75.932 60.288C76.748 59.1547 77.8133 58.0893 79.128 57.092C80.4427 56.14 81.8707 55.256 83.412 54.44C84.9987 53.624 86.4947 52.8533 87.9 52.128C88.5347 50.5413 89.124 48.8413 89.668 47.028C90.2573 45.1693 90.824 43.1293 91.368 40.908C89.6453 43.4013 87.832 45.4867 85.928 47.164C84.0693 48.796 82.188 49.612 80.284 49.612C78.652 49.612 77.3827 49 76.476 47.776C75.6147 46.552 75.184 44.9653 75.184 43.016C75.184 40.6587 75.7507 38.4147 76.884 36.284C78.0627 34.1533 79.5813 32.272 81.44 30.64C83.2987 29.008 85.2707 27.7387 87.356 26.832C89.4413 25.88 91.3907 25.404 93.204 25.404C94.5187 25.404 95.448 25.6307 95.992 26.084C96.5813 26.492 96.876 26.9907 96.876 27.58C96.876 27.988 96.7627 28.3053 96.536 28.532C96.3093 28.7587 96.1507 28.8947 96.06 28.94C95.6067 28.26 94.7 27.92 93.34 27.92C91.572 27.92 89.8493 28.4413 88.172 29.484C86.54 30.5267 85.0893 31.864 83.82 33.496C82.5507 35.128 81.5307 36.828 80.76 38.596C80.0347 40.3187 79.672 41.9053 79.672 43.356C79.672 44.444 79.876 45.2827 80.284 45.872C80.7373 46.416 81.3267 46.688 82.052 46.688C83.3667 46.688 84.9307 45.8267 86.744 44.104C88.6027 42.336 90.3933 40.2053 92.116 37.712C92.252 37.0773 92.3653 36.5107 92.456 36.012C92.592 35.5133 92.7507 34.8787 92.932 34.108C93.068 33.4733 93.3853 32.748 93.884 31.932C94.428 31.0707 95.2667 30.64 96.4 30.64C96.808 30.64 97.284 30.708 97.828 30.844C97.828 31.5693 97.6013 32.9067 97.148 34.856C96.74 36.76 96.128 39.004 95.312 41.588C94.5413 44.1267 93.6347 46.756 92.592 49.476C94.8133 48.4333 96.9667 46.9147 99.052 44.92C101.137 42.88 102.679 40.568 103.676 37.984L104.56 38.664C103.88 40.704 102.792 42.5627 101.296 44.24C99.8 45.9173 98.1907 47.368 96.468 48.592C94.7907 49.816 93.2493 50.768 91.844 51.448C90.5747 54.4853 89.2373 57.2507 87.832 59.744C86.4267 62.2827 84.9533 64.3 83.412 65.796C81.916 67.292 80.3067 68.04 78.584 68.04ZM78.38 65.864C79.2867 65.864 80.5107 64.9573 82.052 63.144C83.6387 61.376 85.3387 58.316 87.152 53.964C85.3387 54.8707 83.6387 55.8 82.052 56.752C80.5107 57.7493 79.2413 58.792 78.244 59.88C77.2467 60.968 76.748 62.1693 76.748 63.484C76.748 64.2093 76.9067 64.776 77.224 65.184C77.5413 65.6373 77.9267 65.864 78.38 65.864ZM107.122 51.176C105.172 51.176 103.79 50.564 102.974 49.34C102.158 48.1613 101.75 46.7107 101.75 44.988C101.75 43.5827 101.976 42.132 102.43 40.636C102.883 39.14 103.472 37.7347 104.198 36.42C104.968 35.1053 105.807 34.04 106.714 33.224C107.666 32.408 108.618 32 109.57 32C109.978 32 110.454 32.1133 110.998 32.34C110.59 32.7027 110.091 33.3827 109.502 34.38C108.958 35.332 108.436 36.4427 107.938 37.712C107.439 38.936 107.008 40.16 106.646 41.384C106.328 42.608 106.17 43.6507 106.17 44.512C106.17 45.872 106.396 46.8693 106.85 47.504C107.303 48.0933 107.892 48.388 108.618 48.388C109.57 48.388 110.703 47.8893 112.018 46.892C113.332 45.8493 114.624 44.5347 115.894 42.948C114.624 41.9053 113.627 40.5453 112.902 38.868C112.222 37.1453 111.882 35.4 111.882 33.632C111.882 32.136 112.131 30.7307 112.63 29.416C113.174 28.1013 113.944 27.0587 114.942 26.288C115.939 25.472 117.14 25.064 118.546 25.064C120.404 25.064 121.651 25.5627 122.286 26.56C122.92 27.5573 123.238 28.804 123.238 30.3C123.238 32.068 122.807 34.04 121.946 36.216C121.084 38.3467 119.996 40.4093 118.682 42.404C119.498 42.8573 120.359 43.084 121.266 43.084C122.308 43.084 123.578 42.744 125.074 42.064C126.57 41.3387 127.726 40.0467 128.542 38.188L129.358 38.868C128.451 40.9987 127.159 42.5173 125.482 43.424C123.85 44.2853 122.286 44.716 120.79 44.716C119.566 44.716 118.478 44.4893 117.526 44.036C115.984 46.076 114.284 47.776 112.426 49.136C110.612 50.496 108.844 51.176 107.122 51.176ZM117.118 41.18C118.251 39.5027 119.18 37.7573 119.906 35.944C120.676 34.0853 121.062 32.34 121.062 30.708C121.062 29.3933 120.858 28.4413 120.45 27.852C120.087 27.2173 119.611 26.9 119.022 26.9C118.115 26.9 117.186 27.5573 116.234 28.872C115.282 30.1867 114.806 31.8413 114.806 33.836C114.806 35.1507 114.987 36.488 115.35 37.848C115.758 39.1627 116.347 40.2733 117.118 41.18ZM131.958 51.176C130.008 51.176 128.626 50.564 127.81 49.34C126.994 48.1613 126.586 46.7107 126.586 44.988C126.586 43.5827 126.812 42.132 127.266 40.636C127.719 39.14 128.308 37.7347 129.034 36.42C129.804 35.1053 130.643 34.04 131.55 33.224C132.502 32.408 133.454 32 134.406 32C134.814 32 135.29 32.1133 135.834 32.34C135.426 32.7027 134.927 33.3827 134.338 34.38C133.794 35.332 133.272 36.4427 132.774 37.712C132.275 38.936 131.844 40.16 131.482 41.384C131.164 42.608 131.006 43.6507 131.006 44.512C131.006 45.872 131.232 46.8693 131.686 47.504C132.139 48.0933 132.728 48.388 133.454 48.388C134.406 48.388 135.539 47.8893 136.854 46.892C138.168 45.8493 139.46 44.5347 140.73 42.948C139.46 41.9053 138.463 40.5453 137.738 38.868C137.058 37.1453 136.718 35.4 136.718 33.632C136.718 32.136 136.967 30.7307 137.466 29.416C138.01 28.1013 138.78 27.0587 139.778 26.288C140.775 25.472 141.976 25.064 143.382 25.064C145.24 25.064 146.487 25.5627 147.122 26.56C147.756 27.5573 148.074 28.804 148.074 30.3C148.074 32.068 147.643 34.04 146.782 36.216C145.92 38.3467 144.832 40.4093 143.518 42.404C144.334 42.8573 145.195 43.084 146.102 43.084C147.144 43.084 148.414 42.744 149.91 42.064C151.406 41.3387 152.562 40.0467 153.378 38.188L154.194 38.868C153.287 40.9987 151.995 42.5173 150.318 43.424C148.686 44.2853 147.122 44.716 145.626 44.716C144.402 44.716 143.314 44.4893 142.362 44.036C140.82 46.076 139.12 47.776 137.262 49.136C135.448 50.496 133.68 51.176 131.958 51.176ZM141.954 41.18C143.087 39.5027 144.016 37.7573 144.742 35.944C145.512 34.0853 145.898 32.34 145.898 30.708C145.898 29.3933 145.694 28.4413 145.286 27.852C144.923 27.2173 144.447 26.9 143.858 26.9C142.951 26.9 142.022 27.5573 141.07 28.872C140.118 30.1867 139.642 31.8413 139.642 33.836C139.642 35.1507 139.823 36.488 140.186 37.848C140.594 39.1627 141.183 40.2733 141.954 41.18ZM156.114 51.04C154.98 51.04 153.847 50.5867 152.714 49.68C151.58 48.7733 151.014 47.3227 151.014 45.328C151.014 43.832 151.376 42.1547 152.102 40.296C152.827 38.4373 153.802 36.6013 155.026 34.788C156.25 32.9293 157.655 31.2293 159.242 29.688C160.828 28.1013 162.483 26.8547 164.206 25.948C165.928 24.996 167.628 24.52 169.306 24.52C171.3 24.52 172.298 25.2227 172.298 26.628C172.298 26.8093 172.275 26.968 172.23 27.104C172.23 27.24 172.207 27.3987 172.162 27.58C171.708 26.9 170.847 26.56 169.578 26.56C168.127 26.56 166.699 27.0133 165.294 27.92C163.934 28.7813 162.664 29.9373 161.486 31.388C160.352 32.7933 159.355 34.312 158.494 35.944C157.632 37.576 156.952 39.1627 156.454 40.704C156 42.2 155.774 43.4693 155.774 44.512C155.774 45.5093 156 46.3027 156.454 46.892C156.907 47.4813 157.496 47.776 158.222 47.776C159.446 47.776 160.919 47.0053 162.642 45.464C164.41 43.9227 166.2 41.7467 168.014 38.936C169.827 36.1253 171.459 32.8387 172.91 29.076C173.907 26.4467 174.927 23.772 175.97 21.052C177.058 18.332 178.146 15.7253 179.234 13.232C180.322 10.6933 181.364 8.44933 182.362 6.5C183.404 4.50533 184.379 2.94133 185.286 1.808C186.238 0.629332 187.076 0.0399981 187.802 0.0399981C188.164 0.0399981 188.482 0.198664 188.754 0.515996C189.026 0.787998 189.162 1.15067 189.162 1.604C189.162 2.32933 188.776 3.576 188.006 5.344C187.28 7.06666 186.306 9.152 185.082 11.6C183.903 14.0027 182.656 16.632 181.342 19.488C180.027 22.344 178.758 25.2453 177.534 28.192C176.355 31.1387 175.38 33.9947 174.61 36.76C173.884 39.48 173.522 41.9733 173.522 44.24C173.522 45.5093 173.59 46.4613 173.726 47.096C173.862 47.7307 174.315 48.048 175.086 48.048C176.038 48.048 177.148 47.64 178.418 46.824C179.687 46.008 180.956 44.852 182.226 43.356C183.495 41.86 184.606 40.0693 185.558 37.984L186.374 38.596C185.512 40.908 184.334 42.9933 182.838 44.852C181.342 46.6653 179.732 48.0933 178.01 49.136C176.332 50.224 174.723 50.768 173.182 50.768C171.504 50.768 170.326 50.2013 169.646 49.068C169.011 47.98 168.694 46.8467 168.694 45.668C168.694 44.8973 168.807 43.8773 169.034 42.608C169.26 41.3387 169.578 39.9333 169.986 38.392C168.535 40.7947 166.994 42.9707 165.362 44.92C163.73 46.824 162.12 48.32 160.534 49.408C158.992 50.496 157.519 51.04 156.114 51.04Z" fill="#005288"/>
</svg>
